<?xml version="1.0" standalone="no"?>
<!DOCTYPE svg PUBLIC "-//W3C//DTD SVG 20010904//EN"
 "http://www.w3.org/TR/2001/REC-SVG-20010904/DTD/svg10.dtd">
<svg version="1.0" xmlns="http://www.w3.org/2000/svg"
 width="307.000000pt" height="164.000000pt" viewBox="0 0 307.000000 164.000000"
 preserveAspectRatio="xMidYMid meet">

<g transform="translate(0.000000,164.000000) scale(0.100000,-0.100000)"
fill="#000000" stroke="none">
<path d="M0 820 l0 -820 1535 0 1535 0 0 820 0 820 -1535 0 -1535 0 0 -820z
m373 683 c27 -65 47 -169 28 -147 -28 32 -72 184 -54 184 6 0 17 -17 26 -37z
m-235 -1 c2 -12 -2 -22 -8 -22 -6 0 -8 5 -5 10 3 6 1 10 -4 10 -6 0 -11 -4
-11 -10 0 -5 -4 -10 -10 -10 -11 0 -14 33 -3 44 14 13 38 1 41 -22z m2762 15
c0 -8 -7 -14 -15 -14 -16 0 -19 9 -8 20 11 11 23 8 23 -6z m-1502 -14 c-5 -26
-38 -29 -38 -4 0 15 6 21 21 21 14 0 19 -5 17 -17z m-262 -75 c3 -4 -22 -133
-35 -175 -8 -27 -7 -33 5 -33 8 0 14 9 14 19 0 28 40 151 48 151 5 0 17 -6 27
-14 18 -13 19 -18 6 -77 -8 -35 -14 -73 -15 -84 -1 -11 -7 -24 -13 -28 -7 -4
-13 -15 -13 -22 0 -21 28 -19 33 3 4 14 5 14 6 1 0 -9 -6 -22 -14 -29 -8 -7
-15 -18 -15 -25 0 -11 -8 -11 -37 -3 -53 14 -52 14 -41 52 10 32 14 34 42 30
17 -2 9 3 -19 11 -56 16 -83 19 -46 4 17 -7 21 -14 16 -27 -4 -9 -10 -25 -12
-35 -3 -11 -12 -16 -22 -13 -9 3 -28 8 -43 12 -31 7 -30 6 -22 28 3 9 15 16
25 16 12 0 19 7 19 20 0 22 -26 28 -33 8 -2 -7 -3 8 -3 33 1 26 4 45 7 43 10
-6 21 64 13 78 -4 7 -3 8 4 4 8 -5 12 0 12 13 0 11 4 23 10 26 6 4 8 -7 5 -27
l-5 -33 12 33 c9 27 9 35 -2 42 -10 6 -8 9 6 12 17 4 72 -6 80 -14z m69 -20
c25 -11 34 -28 15 -28 -19 0 -59 23 -54 31 7 11 8 11 39 -3z m-957 -10 c-6
-18 -28 -21 -28 -4 0 9 7 16 16 16 9 0 14 -5 12 -12z m272 -62 c0 -6 -191 -28
-197 -23 -2 3 24 9 59 15 67 10 138 14 138 8z m330 -33 c-25 -47 -50 -77 -72
-86 -27 -10 -22 3 28 66 52 65 74 75 44 20z m-341 -63 c18 -49 21 -88 6 -100
-8 -7 -13 -17 -12 -22 1 -6 -3 -12 -10 -15 -13 -5 -19 21 -28 120 -7 67 -6 68
14 55 11 -7 25 -24 30 -38z m-105 14 c3 -9 6 -27 6 -41 0 -14 8 -39 18 -55 12
-22 14 -32 5 -35 -7 -2 -9 -11 -6 -19 7 -20 -22 -18 -47 3 -15 13 -20 30 -20
65 0 74 27 126 44 82z m544 -69 c-1 -13 -6 -21 -10 -17 -5 5 -6 16 -2 25 9 24
14 21 12 -8z m105 -70 c64 -16 89 -35 47 -35 -31 0 -150 42 -144 51 2 4 10 7
17 5 7 -2 42 -12 80 -21z m173 -12 c-11 -11 -17 4 -9 23 7 18 8 18 11 1 2 -10
1 -21 -2 -24z m-636 -18 c0 -8 -4 -15 -10 -15 -5 0 -7 7 -4 15 4 8 8 15 10 15
2 0 4 -7 4 -15z m-46 -9 c-7 -19 -65 -30 -75 -14 -11 17 9 28 48 28 24 0 31
-4 27 -14z m-94 -10 c0 -8 6 -16 13 -19 23 -9 -27 -46 -72 -53 -39 -6 -44 -5
-38 9 4 10 1 17 -6 17 -7 1 -5 6 6 14 9 7 17 18 17 24 0 11 21 19 58 21 13 1
22 -5 22 -13z m-110 -16 c0 -5 -4 -10 -10 -10 -5 0 -10 5 -10 10 0 6 5 10 10
10 6 0 10 -4 10 -10z m684 3 c3 -4 12 -8 19 -9 62 -13 77 -20 77 -35 0 -10
-30 -12 -54 -3 -9 3 -14 9 -12 13 2 3 -13 5 -35 3 -34 -4 -39 -2 -39 17 0 21
28 30 44 14z m6 -59 c0 -2 -7 -4 -15 -4 -8 0 -15 4 -15 10 0 5 7 7 15 4 8 -4
15 -8 15 -10z m-468 -13 c-4 -18 16 -205 28 -256 5 -22 12 -71 15 -110 4 -38
9 -73 11 -76 2 -3 6 -59 9 -125 4 -65 11 -134 15 -152 7 -26 5 -34 -6 -39 -22
-8 -32 6 -36 57 -5 47 -54 384 -63 435 -4 17 -6 40 -7 52 0 16 -5 22 -19 20
-10 -2 -20 -5 -23 -8 -2 -2 8 -105 24 -229 16 -124 31 -251 35 -283 l7 -58 46
1 c63 2 72 0 39 -10 -51 -15 -163 -23 -151 -11 6 7 7 33 2 74 -10 76 -36 207
-37 188 -2 -29 -12 -1 -26 70 l-15 74 6 -60 c2 -33 7 -78 11 -100 3 -22 3 -38
0 -35 -8 7 -47 273 -46 312 1 21 6 6 15 -42 12 -69 13 -70 9 -17 -3 31 -8 82
-12 114 -4 37 -3 54 4 50 6 -4 8 4 5 21 -5 24 -6 25 -14 7 -5 -13 -7 -3 -3 28
3 27 1 46 -4 43 -5 -4 -7 3 -4 14 4 15 0 20 -13 20 -17 0 -17 1 -2 16 29 29
206 43 200 15z m55 -3 c-3 -8 -6 -5 -6 6 -1 11 2 17 5 13 3 -3 4 -12 1 -19z
m453 2 c0 -5 -2 -10 -4 -10 -3 0 -8 5 -11 10 -3 6 -1 10 4 10 6 0 11 -4 11
-10z m117 -32 c-9 -32 -13 -37 -15 -21 -3 19 13 63 22 63 2 0 -1 -19 -7 -42z
m-819 -93 c0 -25 -2 -24 -9 10 -10 51 -10 92 1 50 4 -16 8 -43 8 -60z m259 53
c-3 -7 -5 -2 -5 12 0 14 2 19 5 13 2 -7 2 -19 0 -25z m957 22 c14 -5 26 -17
26 -26 0 -16 -1 -16 -19 0 -40 36 -82 -8 -67 -69 5 -20 13 -25 36 -25 17 0 33
7 39 17 5 10 13 15 17 10 13 -12 -28 -47 -56 -47 -31 0 -45 13 -55 53 -13 50
3 79 52 96 1 1 13 -3 27 -9z m177 -9 c18 -15 23 -28 23 -60 -2 -52 -18 -71
-59 -71 -41 0 -60 22 -60 72 0 30 6 45 24 59 29 24 43 24 72 0z m150 9 c10 -6
19 -18 19 -27 0 -14 -2 -14 -19 1 -21 19 -56 18 -56 -2 0 -6 15 -20 34 -30 45
-22 59 -45 42 -66 -25 -30 -101 -11 -101 25 0 15 11 10 29 -12 15 -18 21 -20
39 -10 32 17 27 31 -17 48 -48 19 -57 37 -31 63 23 23 33 24 61 10z m730 -10
c13 -10 19 -19 12 -20 -6 0 -15 5 -18 10 -9 14 -48 13 -63 -2 -17 -17 -15 -74
4 -92 20 -21 26 -20 58 5 29 23 35 15 9 -13 -30 -33 -75 -21 -92 25 -14 36 -5
73 22 92 28 20 40 19 68 -5z m140 10 c10 -6 19 -18 19 -27 0 -15 -1 -15 -13 1
-8 11 -22 17 -37 14 -39 -5 -35 -28 8 -45 46 -17 57 -35 42 -64 -19 -35 -90
-20 -90 20 0 11 5 9 20 -7 23 -25 22 -24 44 -16 27 10 18 33 -21 51 -46 22
-57 58 -21 72 30 13 26 13 49 1z m-744 -45 l21 -38 21 42 c12 22 26 41 31 41
6 0 9 -31 8 -72 l-2 -73 -3 64 -4 65 -25 -42 c-14 -23 -27 -42 -29 -42 -3 0
-13 17 -24 38 l-20 37 -1 -57 c0 -32 -4 -58 -10 -58 -6 0 -10 30 -10 71 0 81
11 87 47 24z m201 38 c-33 -4 -38 -8 -38 -29 0 -20 5 -24 33 -26 l32 -1 -32
-4 c-29 -4 -33 -8 -33 -33 0 -26 4 -29 38 -33 34 -3 33 -4 -10 -5 l-48 -2 0
70 0 70 48 -2 c43 -1 44 -2 10 -5z m160 0 c-27 -4 -28 -7 -30 -71 l-2 -67 -3
67 c-4 64 -5 67 -31 71 -15 2 0 4 33 4 33 0 48 -2 33 -4z m92 -63 c0 -40 -4
-70 -10 -70 -6 0 -10 30 -10 70 0 40 4 70 10 70 6 0 10 -30 10 -70z m-2113
-92 c-2 -13 -4 -5 -4 17 -1 22 1 32 4 23 2 -10 2 -28 0 -40z m270 10 c-3 -8
-6 -5 -6 6 -1 11 2 17 5 13 3 -3 4 -12 1 -19z m-30 -10 c-3 -8 -6 -5 -6 6 -1
11 2 17 5 13 3 -3 4 -12 1 -19z m21 -148 c0 -16 -3 -10 -9 15 -4 22 -8 54 -7
70 0 22 3 19 9 -15 4 -25 7 -56 7 -70z m-271 38 c-3 -8 -6 -5 -6 6 -1 11 2 17
5 13 3 -3 4 -12 1 -19z m300 -30 c-3 -8 -6 -5 -6 6 -1 11 2 17 5 13 3 -3 4
-12 1 -19z m-290 -30 c-3 -8 -6 -5 -6 6 -1 11 2 17 5 13 3 -3 4 -12 1 -19z
m270 -55 c-3 -10 -5 -2 -5 17 0 19 2 27 5 18 2 -10 2 -26 0 -35z m-260 -30
c-3 -10 -5 -2 -5 17 0 19 2 27 5 18 2 -10 2 -26 0 -35z m270 -40 c-3 -10 -5
-2 -5 17 0 19 2 27 5 18 2 -10 2 -26 0 -35z m-260 -30 c-3 -10 -5 -2 -5 17 0
19 2 27 5 18 2 -10 2 -26 0 -35z m2471 25 c-6 -18 -28 -21 -28 -4 0 9 7 16 16
16 9 0 14 -5 12 -12z m-2461 -95 c-3 -10 -5 -4 -5 12 0 17 2 24 5 18 2 -7 2
-21 0 -30z m-217 -9 c0 -8 -6 -11 -17 -7 -11 4 -14 3 -9 -5 4 -7 3 -12 -2 -12
-15 0 -22 26 -10 38 13 13 38 4 38 -14z m247 -16 c-3 -8 -6 -5 -6 6 -1 11 2
17 5 13 3 -3 4 -12 1 -19z m447 -27 c3 -5 -1 -11 -9 -15 -9 -3 -15 0 -15 9 0
16 16 20 24 6z m1879 -7 c11 -11 -5 -34 -24 -34 -18 0 -26 20 -12 33 8 9 28 9
36 1z m-1685 -76 c-4 -30 -48 -39 -48 -10 0 24 8 32 32 32 14 0 19 -6 16 -22z
m-811 -11 c19 -14 -3 -47 -32 -47 -19 0 -25 5 -25 23 0 42 22 52 57 24z m190
-9 c-3 -8 -6 -5 -6 6 -1 11 2 17 5 13 3 -3 4 -12 1 -19z m2479 -53 c8 -20 -13
-45 -37 -45 -14 0 -19 7 -19 30 0 25 4 30 25 30 14 0 28 -7 31 -15z m-1686
-46 c0 -5 -4 -8 -9 -5 -5 4 -12 0 -14 -6 -3 -8 -6 -6 -6 5 -1 9 6 17 14 17 8
0 15 -5 15 -11z m-1183 -56 c-3 -10 -5 -4 -5 12 0 17 2 24 5 18 2 -7 2 -21 0
-30z m72 8 c-1 -18 -3 -20 -6 -8 -3 11 -11 16 -19 13 -8 -3 -14 -1 -14 5 0 6
-5 7 -12 3 -6 -4 -8 -3 -5 3 4 6 18 11 32 11 21 0 25 -5 24 -27z m101 16 c0
-5 7 -4 15 3 12 10 15 10 15 -4 0 -9 5 -16 11 -16 6 0 9 7 5 15 -4 12 3 15 39
13 40 -1 45 -4 45 -25 0 -14 -6 -23 -15 -23 -8 0 -15 6 -15 14 0 25 -22 30
-39 10 -17 -21 -86 -31 -74 -10 5 8 3 8 -8 0 -8 -6 -26 -11 -40 -12 -22 -1
-26 3 -26 22 0 21 4 23 43 23 24 0 44 -4 44 -10z m-130 -33 c0 -2 -7 -4 -15
-4 -8 0 -15 4 -15 10 0 5 7 7 15 4 8 -4 15 -8 15 -10z"/>
<path d="M464 957 c-9 -24 11 -152 24 -149 7 1 12 -4 13 -10 0 -7 5 -2 10 12
14 33 -9 160 -28 160 -7 0 -16 -6 -19 -13z"/>
<path d="M402 780 c0 -14 2 -19 5 -12 2 6 2 18 0 25 -3 6 -5 1 -5 -13z"/>
<path d="M412 720 c0 -14 2 -19 5 -12 2 6 2 18 0 25 -3 6 -5 1 -5 -13z"/>
<path d="M442 495 c0 -16 2 -22 5 -12 2 9 2 23 0 30 -3 6 -5 -1 -5 -18z"/>
<path d="M1696 904 c-19 -18 -21 -65 -4 -82 7 -7 21 -12 33 -12 28 0 45 18 45
48 0 55 -40 80 -74 46z"/>
<path d="M1050 230 c0 -5 5 -10 11 -10 5 0 7 5 4 10 -3 6 -8 10 -11 10 -2 0
-4 -4 -4 -10z"/>
<path d="M230 200 c0 -5 5 -10 10 -10 6 0 10 5 10 10 0 6 -4 10 -10 10 -5 0
-10 -4 -10 -10z"/>
<path d="M2900 140 c0 -5 5 -10 10 -10 6 0 10 5 10 10 0 6 -4 10 -10 10 -5 0
-10 -4 -10 -10z"/>
<path d="M163 75 c0 -8 4 -15 9 -15 4 0 8 4 8 9 0 6 -4 12 -8 15 -5 3 -9 -1
-9 -9z"/>
</g>
</svg>
