<?xml version="1.0" standalone="no"?>
<!DOCTYPE svg PUBLIC "-//W3C//DTD SVG 20010904//EN"
 "http://www.w3.org/TR/2001/REC-SVG-20010904/DTD/svg10.dtd">
<svg version="1.0" xmlns="http://www.w3.org/2000/svg"
 width="545.000000pt" height="317.000000pt" viewBox="0 0 545.000000 317.000000"
 preserveAspectRatio="xMidYMid meet">

<g transform="translate(0.000000,317.000000) scale(0.100000,-0.100000)"
fill="#000000" stroke="none">
<path d="M1 2588 c1 -479 9 -849 17 -765 1 9 7 17 12 17 6 0 10 7 10 15 0 23
59 101 135 179 105 106 133 121 146 76 6 -21 7 -18 8 15 2 57 34 121 73 145
31 19 82 22 155 9 6 -1 23 -22 39 -46 32 -51 45 -58 15 -8 -19 34 -20 35 -2
45 14 7 22 6 31 -5 22 -27 36 1 16 33 -5 8 -3 12 6 10 22 -5 26 -41 6 -67 -10
-13 -18 -28 -18 -34 0 -5 11 6 24 25 16 24 22 44 18 66 -3 27 -1 31 12 26 9
-3 16 -1 16 5 0 6 -6 11 -12 11 -7 0 -5 5 5 11 11 7 17 22 17 49 0 22 5 40 11
40 5 0 8 4 5 9 -6 9 28 43 62 60 29 15 99 16 137 1 48 -18 85 -60 101 -117 16
-57 29 -73 31 -42 1 11 -2 17 -6 15 -4 -3 -8 1 -8 9 0 19 16 8 27 -19 7 -16 9
-8 9 32 1 52 13 68 26 35 6 -17 7 -17 19 0 18 24 71 22 89 -3 l14 -21 6 21 c8
31 24 24 37 -15 10 -30 14 -34 26 -24 12 10 12 14 2 20 -7 5 -9 9 -4 9 6 0 1
7 -10 16 -19 15 -19 15 1 6 11 -5 27 -7 35 -5 13 4 13 3 0 -6 -13 -9 -13 -11
2 -11 10 0 18 -10 21 -27 3 -20 4 -15 6 15 1 44 13 54 30 25 9 -15 12 -16 20
-3 5 8 7 18 5 22 -3 4 2 5 10 2 11 -4 17 -20 18 -48 l1 -41 6 45 c5 38 10 45
28 46 12 1 21 -2 18 -5 -2 -4 0 -13 6 -21 7 -12 9 -12 9 4 0 15 6 17 35 14 19
-2 35 0 35 4 0 4 -12 8 -27 9 l-28 1 28 8 c16 5 35 14 43 21 8 7 14 7 14 1 0
-14 72 8 86 26 7 10 23 13 50 10 26 -3 49 1 70 13 18 9 36 14 40 9 5 -4 25
-10 45 -14 31 -6 37 -3 47 19 11 24 30 30 74 27 11 -1 15 3 12 13 -4 9 0 15
10 15 9 0 16 5 16 10 0 6 6 10 14 10 8 0 22 10 31 23 8 12 18 20 21 18 3 -2
26 13 51 34 24 20 47 34 50 31 4 -3 21 5 38 19 18 13 36 21 39 17 4 -3 4 1 0
11 -3 10 -1 17 5 17 6 0 11 -5 11 -10 0 -9 46 14 60 30 3 3 28 14 55 24 28 10
70 28 95 39 24 10 51 21 60 22 8 2 16 4 18 5 1 2 5 3 10 5 4 1 20 7 37 14 16
7 59 19 95 27 36 8 76 17 90 21 14 3 35 7 48 7 15 1 22 7 22 21 1 19 1 19 11
2 7 -12 15 -15 22 -9 7 5 23 9 37 10 14 1 26 6 28 12 2 5 8 10 14 10 6 0 8 -7
4 -15 -4 -12 -2 -13 12 -7 9 5 51 12 92 16 53 4 79 11 89 24 13 16 13 16 7 -2
-5 -14 -3 -17 11 -11 10 4 46 8 80 8 51 0 60 3 56 16 -4 14 -3 14 9 1 17 -20
125 -25 109 -6 -8 10 -4 12 20 11 21 -1 27 1 19 9 -16 16 -12 25 10 19 11 -3
17 -9 14 -14 -12 -19 39 3 64 28 17 16 32 17 32 1 0 -10 3 -9 9 1 7 10 13 11
31 1 19 -10 24 -9 37 10 8 12 21 19 29 16 7 -3 16 -1 19 4 10 16 25 12 25 -6
0 -23 73 -13 111 15 35 26 43 26 29 1 -14 -26 -4 -25 45 5 l40 25 -2017 0
-2018 0 1 -582z m3309 492 c0 -5 -4 -10 -10 -10 -5 0 -10 5 -10 10 0 6 5 10
10 10 6 0 10 -4 10 -10z m209 -13 c0 -9 -2 -8 -6 1 -2 6 -10 9 -15 6 -7 -4 -8
-2 -4 5 9 13 26 5 25 -12z m-3189 -22 c35 -18 50 -43 50 -85 0 -44 -16 -69
-56 -86 -29 -12 -39 -12 -66 -1 -42 18 -58 37 -64 79 -4 25 0 40 16 61 37 46
73 56 120 32z m2520 -15 c0 -5 -4 -10 -10 -10 -5 0 -10 5 -10 10 0 6 5 10 10
10 6 0 10 -4 10 -10z m-130 -70 c0 -5 -4 -10 -10 -10 -5 0 -10 5 -10 10 0 6 5
10 10 10 6 0 10 -4 10 -10z m-120 -20 c0 -5 -5 -10 -11 -10 -5 0 -7 5 -4 10 3
6 8 10 11 10 2 0 4 -4 4 -10z m-70 -50 c0 -5 -2 -10 -4 -10 -3 0 -8 5 -11 10
-3 6 -1 10 4 10 6 0 11 -4 11 -10z m-50 -20 c0 -5 -5 -10 -11 -10 -5 0 -7 5
-4 10 3 6 8 10 11 10 2 0 4 -4 4 -10z m-95 -30 c3 -5 1 -10 -4 -10 -6 0 -11 5
-11 10 0 6 2 10 4 10 3 0 8 -4 11 -10z m-125 -60 c0 -5 -2 -10 -4 -10 -3 0 -8
5 -11 10 -3 6 -1 10 4 10 6 0 11 -4 11 -10z m-75 -69 c3 -5 1 -12 -5 -16 -5
-3 -10 1 -10 9 0 18 6 21 15 7z m-1553 -128 c50 -48 32 -120 -36 -143 -77 -25
-143 51 -104 123 29 55 94 64 140 20z m1322 -1 c3 -5 -1 -9 -9 -9 -8 0 -12 4
-9 9 3 4 7 8 9 8 2 0 6 -4 9 -8z m-10 -37 c-7 -16 -24 -21 -24 -6 0 8 7 13 27
20 1 1 0 -6 -3 -14z m-1556 -147 c3 -36 2 -38 -27 -38 -30 0 -31 2 -31 41 0
38 1 40 28 37 23 -3 27 -8 30 -40z m129 -3 c1 -34 -1 -37 -12 -22 -15 21 -25
22 -25 2 0 -8 -4 -15 -10 -15 -5 0 -10 18 -10 41 0 38 1 40 28 37 24 -3 27 -7
29 -43z m134 -6 c8 -26 17 -38 26 -35 7 3 13 1 13 -4 0 -6 -7 -10 -16 -10 -9
0 -12 -5 -8 -12 4 -6 3 -8 -3 -5 -6 4 -16 1 -22 -7 -9 -11 -9 -15 0 -18 7 -2
13 -13 15 -24 2 -17 1 -16 -17 5 -10 13 -19 19 -19 15 0 -5 -9 -15 -20 -22
-19 -12 -21 -10 -18 22 2 33 3 34 19 20 10 -9 19 -11 23 -6 3 6 3 12 -1 15 -5
2 -3 2 4 1 7 -2 15 1 18 6 4 6 0 10 -7 11 -9 0 -10 2 -1 5 15 7 5 34 -12 34
-17 0 -27 -27 -12 -34 9 -3 8 -5 -1 -5 -21 -2 -24 24 -8 64 18 43 31 39 47
-16z"/>
<path d="M350 2420 c0 -5 7 -10 16 -10 8 0 12 5 9 10 -3 6 -10 10 -16 10 -5 0
-9 -4 -9 -10z"/>
<path d="M350 2380 c0 -5 7 -10 15 -10 8 0 15 5 15 10 0 6 -7 10 -15 10 -8 0
-15 -4 -15 -10z"/>
<path d="M480 2415 c0 -9 5 -15 11 -13 6 2 11 8 11 13 0 5 -5 11 -11 13 -6 2
-11 -4 -11 -13z"/>
<path d="M621 2404 c0 -11 3 -14 6 -6 3 7 2 16 -1 19 -3 4 -6 -2 -5 -13z"/>
<path d="M590 2289 c0 -5 5 -7 10 -4 6 3 10 8 10 11 0 2 -4 4 -10 4 -5 0 -10
-5 -10 -11z"/>
<path d="M4040 3150 c0 -17 3 -19 19 -10 11 5 38 10 60 10 22 0 43 5 46 10 4
6 -18 10 -59 10 -60 0 -66 -2 -66 -20z"/>
<path d="M4213 3163 c9 -2 25 -2 35 0 9 3 1 5 -18 5 -19 0 -27 -2 -17 -5z"/>
<path d="M4971 3166 c2 -3 45 -6 94 -7 50 -1 93 -7 97 -12 3 -6 30 -9 60 -7
29 1 66 2 82 2 16 -1 37 3 46 8 12 7 31 5 57 -4 36 -13 39 -12 40 5 2 18 -9
19 -239 19 -133 0 -239 -2 -237 -4z"/>
<path d="M3130 2903 c0 -7 -11 -10 -27 -9 -36 4 -53 -3 -53 -20 0 -11 6 -11
27 -3 14 5 32 8 40 5 7 -3 13 -2 13 3 0 4 14 7 30 6 17 -1 33 2 35 6 3 4 -7 6
-22 4 -16 -1 -31 2 -35 9 -6 8 -8 8 -8 -1z"/>
<path d="M2951 2882 c-8 -8 -16 -10 -20 -5 -8 11 -32 9 -58 -5 -28 -15 -36
-15 -27 1 6 9 4 9 -8 -1 -8 -7 -23 -10 -32 -6 -9 3 -16 1 -16 -4 0 -6 -8 -11
-17 -11 -35 1 -72 -8 -86 -19 -8 -7 -17 -9 -20 -5 -4 3 -13 0 -21 -6 -8 -7
-20 -10 -26 -6 -5 3 -10 2 -10 -3 0 -9 -55 -26 -72 -23 -5 0 -8 -3 -8 -9 0 -5
-6 -10 -14 -10 -8 0 -17 -6 -19 -12 -4 -10 -6 -10 -6 0 -1 10 -4 10 -15 0 -8
-7 -11 -17 -8 -22 3 -5 0 -6 -7 -2 -6 4 -18 2 -26 -4 -8 -7 -15 -9 -15 -5 0 5
-9 0 -21 -11 -12 -10 -23 -18 -25 -16 -11 6 -24 1 -19 -9 4 -6 -2 -13 -14 -16
-12 -3 -21 -13 -21 -22 0 -14 -2 -14 -10 -1 -8 13 -10 13 -10 -1 0 -26 31 -33
37 -9 5 20 13 24 47 20 10 -1 16 2 13 7 -4 5 4 9 16 8 12 -1 30 5 40 13 9 8
17 12 17 8 0 -4 8 -2 18 3 11 6 24 6 35 0 13 -8 15 -6 11 5 -3 7 0 17 7 22 7
4 10 3 5 -4 -3 -6 3 -13 14 -17 12 -4 17 -11 14 -18 -4 -7 -3 -8 2 -4 5 5 9
14 9 20 0 15 43 17 69 4 13 -6 16 -6 12 2 -4 6 -2 11 3 11 6 0 11 -4 11 -10 0
-5 5 -10 11 -10 5 0 8 4 5 9 -8 12 4 42 14 36 4 -3 10 2 14 10 3 8 -3 19 -12
24 -10 6 -12 11 -4 11 15 0 58 -42 54 -53 -1 -4 7 -3 17 3 11 6 18 16 16 23
-4 8 5 11 27 10 18 -1 33 -2 33 -3 0 -1 8 -3 17 -5 12 -2 15 2 11 13 -5 12 -2
14 11 9 17 -7 86 16 86 28 0 3 -6 3 -12 -1 -9 -5 -8 -2 1 10 8 9 20 15 28 12
7 -3 13 1 13 9 0 7 4 16 9 19 4 3 6 -6 3 -20 -3 -19 -9 -23 -26 -19 -11 2 -15
2 -9 -1 10 -4 10 -11 2 -27 -9 -19 -8 -20 3 -7 25 30 75 59 95 56 12 -3 20 1
20 10 0 10 -7 12 -21 8 -35 -11 -39 -10 -45 11 -3 11 -14 21 -23 21 -9 1 -14
-4 -12 -11 3 -7 -4 -15 -15 -18 -17 -4 -19 -2 -11 12 11 22 -10 24 -29 3z
m-40 -54 c11 -21 11 -22 -4 -9 -10 7 -17 17 -17 22 0 15 9 10 21 -13z m36 -8
c1 -11 -2 -20 -8 -20 -10 0 -12 23 -2 33 9 9 9 10 10 -13z m-97 0 c8 -5 11
-12 8 -16 -4 -3 -14 1 -23 10 -18 17 -9 21 15 6z m65 -28 c-3 -3 -11 0 -18 7
-9 10 -8 11 6 5 10 -3 15 -9 12 -12z m-245 -2 c0 -5 -4 -10 -10 -10 -5 0 -10
5 -10 10 0 6 5 10 10 10 6 0 10 -4 10 -10z m170 0 c0 -5 -7 -10 -15 -10 -8 0
-15 5 -15 10 0 6 7 10 15 10 8 0 15 -4 15 -10z m-220 -40 c11 -11 15 -22 10
-25 -6 -4 -10 -2 -10 4 0 6 -8 8 -17 5 -15 -5 -16 -4 -3 5 10 7 11 11 3 11 -7
0 -13 5 -13 10 0 15 8 12 30 -10z m-73 4 c-3 -3 -12 -4 -19 -1 -8 3 -5 6 6 6
11 1 17 -2 13 -5z m123 -14 c0 -5 -4 -10 -10 -10 -5 0 -10 5 -10 10 0 6 5 10
10 10 6 0 10 -4 10 -10z m-230 -40 c0 -5 -4 -10 -10 -10 -5 0 -10 5 -10 10 0
6 5 10 10 10 6 0 10 -4 10 -10z"/>
<path d="M3068 2823 c7 -3 16 -2 19 1 4 3 -2 6 -13 5 -11 0 -14 -3 -6 -6z"/>
<path d="M2730 2750 c0 -5 5 -10 11 -10 5 0 7 5 4 10 -3 6 -8 10 -11 10 -2 0
-4 -4 -4 -10z"/>
<path d="M2504 2692 c3 -5 0 -13 -6 -15 -9 -4 -10 -6 -1 -6 17 -1 25 16 12 25
-7 4 -9 3 -5 -4z"/>
<path d="M2450 2675 c-10 -12 -9 -16 4 -21 9 -4 20 -4 23 0 4 3 1 6 -5 6 -7 0
-12 5 -12 11 0 5 5 7 12 3 7 -4 8 -3 4 4 -9 15 -11 15 -26 -3z"/>
<path d="M2405 2655 c-10 -9 -24 -14 -29 -12 -6 2 -19 -5 -30 -14 -10 -10 -22
-16 -26 -14 -9 6 -23 -25 -15 -33 3 -3 5 0 5 7 0 8 7 11 15 7 8 -3 14 0 12 7
-1 7 4 11 11 10 6 -2 12 2 12 8 0 5 5 7 10 4 8 -5 7 -12 -2 -23 -12 -15 -11
-16 4 -3 10 7 15 17 13 22 -3 4 3 13 14 18 15 9 20 7 25 -12 4 -18 8 -19 18
-9 11 11 10 16 -4 26 -10 7 -15 16 -11 19 11 12 -2 7 -22 -8z"/>
<path d="M2270 2642 c0 -5 7 -15 15 -22 8 -7 15 -8 15 -2 0 5 -7 15 -15 22 -8
7 -15 8 -15 2z"/>
<path d="M2228 2613 c-24 -4 -49 -33 -28 -33 6 0 10 5 10 10 0 6 5 10 11 10 6
0 9 -8 5 -17 -4 -12 0 -10 10 4 13 18 20 20 35 13 15 -8 17 -7 13 5 -4 8 -11
14 -18 14 -6 -1 -23 -4 -38 -6z"/>
<path d="M3573 2559 c-26 -23 -51 -51 -56 -62 -4 -10 -2 -168 4 -349 6 -181 8
-332 5 -335 -3 -3 -1 -14 5 -24 8 -16 22 -19 99 -19 82 0 107 -8 80 -25 -5 -3
-10 -30 -10 -60 0 -43 4 -54 18 -58 16 -4 15 -5 -1 -6 -16 -1 -17 -6 -12 -33
4 -18 9 -35 10 -36 2 -2 121 -6 265 -9 285 -7 280 -7 280 49 0 24 -4 27 -37
31 l-38 4 38 1 37 2 0 54 c0 30 -4 58 -10 61 -27 16 -2 24 83 27 l92 3 3 38
c2 25 -1 37 -10 37 -10 0 -10 2 -1 8 8 5 14 66 18 197 3 105 8 238 11 298 7
143 3 158 -58 207 l-51 40 -245 0 c-221 0 -296 -4 -202 -12 19 -1 45 -12 58
-24 20 -20 21 -23 8 -37 -9 -8 -21 -17 -27 -19 -8 -3 -8 -23 0 -78 7 -43 12
-181 12 -325 -1 -137 2 -255 7 -261 12 -19 48 -26 59 -12 6 8 14 135 18 298 5
157 9 297 9 311 1 16 9 30 24 37 14 7 22 7 22 0 0 -6 11 -8 25 -4 13 3 42 -1
65 -10 68 -27 72 -47 71 -349 0 -143 4 -266 8 -274 5 -7 29 -16 55 -18 55 -7
62 -21 9 -20 -21 0 -186 -1 -368 -2 -181 -2 -342 0 -357 4 l-28 7 2 332 3 331
2 -327 c2 -181 7 -328 11 -328 29 0 32 30 32 347 0 243 3 323 12 323 6 0 3 6
-7 14 -19 14 -19 14 0 35 10 12 25 19 33 16 9 -3 25 3 36 14 16 15 39 21 91
24 52 2 41 4 -42 5 l-112 2 -48 -41z m639 12 c20 -1 69 -51 62 -63 -9 -14
-208 -9 -243 5 l-32 14 26 29 c25 29 27 30 98 22 40 -4 80 -7 89 -7z m188
-421 c0 -167 -2 -306 -5 -308 -3 -3 -5 136 -5 308 0 172 2 311 5 308 3 -3 5
-142 5 -308z m-32 -12 l-2 -303 -6 210 c-5 209 -2 395 6 395 2 0 3 -136 2
-302z m-516 -411 c-36 -7 -59 -7 -75 1 -18 9 -7 11 53 10 l75 -1 -53 -10z m67
-83 c2 -2 -36 -4 -85 -3 -58 1 -80 4 -64 9 23 7 139 2 149 -6z"/>
<path d="M2258 2573 c6 -2 18 -2 25 0 6 3 1 5 -13 5 -14 0 -19 -2 -12 -5z"/>
<path d="M3646 2473 c12 -49 23 -62 24 -25 0 17 0 35 1 40 0 4 -7 8 -16 10
-13 3 -14 -2 -9 -25z"/>
<path d="M1540 2420 c0 -5 10 -10 23 -10 18 0 19 2 7 10 -19 13 -30 13 -30 0z"/>
<path d="M1110 2384 c0 -25 5 -33 23 -37 20 -5 20 -5 5 7 -10 7 -15 16 -12 19
3 3 1 14 -5 24 -9 15 -10 14 -11 -13z"/>
<path d="M1260 2400 c0 -5 5 -10 11 -10 5 0 7 5 4 10 -3 6 -8 10 -11 10 -2 0
-4 -4 -4 -10z"/>
<path d="M1392 2380 c0 -14 2 -19 5 -12 2 6 2 18 0 25 -3 6 -5 1 -5 -13z"/>
<path d="M1415 2380 c-3 -5 -1 -10 4 -10 6 0 11 5 11 10 0 6 -2 10 -4 10 -3 0
-8 -4 -11 -10z"/>
<path d="M1540 2380 c0 -6 7 -10 15 -10 8 0 15 2 15 4 0 2 -7 6 -15 10 -8 3
-15 1 -15 -4z"/>
<path d="M1250 2365 c0 -14 3 -15 14 -6 10 8 16 9 19 1 3 -6 4 -5 3 2 -4 20
-36 22 -36 3z"/>
<path d="M715 2310 c-16 -7 -17 -9 -3 -9 9 -1 20 4 23 9 7 11 7 11 -20 0z"/>
<path d="M3657 2313 c-3 -5 -7 -113 -7 -239 -1 -215 0 -229 17 -229 17 0 18
14 21 192 2 141 -1 205 -11 239 -7 26 -17 43 -20 37z"/>
<path d="M1034 2284 c-10 -8 -12 -12 -4 -7 8 4 40 11 70 14 l55 6 -51 2 c-33
0 -57 -4 -70 -15z"/>
<path d="M429 2211 c-19 -15 -23 -29 -25 -82 l-2 -64 6 56 c7 55 24 89 45 89
6 0 3 -6 -8 -13 -14 -11 -15 -16 -5 -22 9 -5 11 -4 6 3 -6 11 5 16 26 13 4 0
5 6 2 14 -7 17 29 13 52 -6 10 -8 14 -8 14 -1 0 32 -76 41 -111 13z"/>
<path d="M546 2172 c-2 -4 11 -6 30 -4 19 2 34 6 34 8 0 8 -59 4 -64 -4z"/>
<path d="M642 2155 c0 -16 2 -22 5 -12 2 9 2 23 0 30 -3 6 -5 -1 -5 -18z"/>
<path d="M3723 1498 c-2 -5 114 -7 259 -6 262 2 234 6 -85 10 -93 2 -171 0
-174 -4z"/>
<path d="M4903 1448 c-10 -18 -4 -141 8 -153 7 -7 9 20 8 78 -1 48 -3 87 -5
87 -1 0 -6 -6 -11 -12z"/>
<path d="M3040 1410 c0 -26 2 -27 53 -28 28 0 46 2 39 5 -6 2 -10 8 -7 13 3 4
-15 14 -40 22 l-45 15 0 -27z"/>
<path d="M3946 1418 c-3 -7 -6 -22 -8 -33 -3 -17 -13 -21 -78 -25 l-75 -5 79
-7 c43 -5 111 -8 150 -7 68 1 70 1 41 14 -21 9 -32 22 -35 41 -4 24 -11 30
-38 32 -20 2 -34 -2 -36 -10z"/>
<path d="M4840 1399 c0 -5 5 -7 10 -4 6 3 10 8 10 11 0 2 -4 4 -10 4 -5 0 -10
-5 -10 -11z"/>
<path d="M3268 1383 c7 -3 16 -2 19 1 4 3 -2 6 -13 5 -11 0 -14 -3 -6 -6z"/>
<path d="M4748 1382 c-19 -4 -24 -17 -10 -26 11 -7 35 10 31 21 -2 5 -12 7
-21 5z"/>
<path d="M3036 1354 c-8 -21 -7 -36 3 -53 12 -18 51 3 51 27 0 36 -42 56 -54
26z"/>
<path d="M3110 1336 c0 -20 5 -36 10 -36 6 0 10 13 10 29 0 17 -4 33 -10 36
-6 4 -10 -8 -10 -29z"/>
<path d="M3571 1343 c1 -15 5 -39 9 -53 7 -21 8 -22 9 -5 1 11 11 26 23 34 19
12 23 11 37 -8 12 -15 20 -18 31 -11 8 5 11 10 6 10 -5 0 -3 7 4 15 11 13 6
15 -34 15 -31 0 -45 4 -43 12 1 7 -8 14 -20 16 -20 3 -23 -1 -22 -25z"/>
<path d="M3647 1358 c-6 -4 15 -7 48 -7 64 1 65 5 2 11 -20 2 -43 0 -50 -4z"/>
<path d="M3298 1353 c7 -3 16 -2 19 1 4 3 -2 6 -13 5 -11 0 -14 -3 -6 -6z"/>
<path d="M4260 1351 c24 -7 24 -7 -9 -14 -18 -4 -121 -7 -228 -7 -127 0 -192
-3 -188 -10 4 -6 -20 -10 -66 -10 -89 0 -88 -8 2 -11 35 -1 76 -7 89 -12 l25
-10 -30 -6 c-29 -6 -30 -9 -33 -64 -2 -46 0 -57 13 -57 8 0 15 9 15 20 0 11 5
20 10 20 6 0 10 -6 10 -13 0 -7 11 -23 25 -35 28 -25 24 -56 -6 -47 -13 4 -19
2 -19 -8 0 -11 23 -14 110 -16 99 -2 110 0 110 15 0 14 -3 15 -11 7 -9 -9 -15
-8 -25 2 -17 16 -18 41 -3 51 6 3 8 18 5 33 l-6 26 17 -27 c28 -45 43 -35 43
27 0 30 -4 55 -10 55 -5 0 -10 -15 -10 -32 l-1 -33 -14 25 c-8 14 -14 37 -15
51 0 22 6 28 31 33 50 10 174 7 185 -4 7 -7 24 -6 52 4 37 13 42 13 42 0 0 -8
5 -12 10 -9 18 11 12 54 -7 55 -10 0 -45 3 -78 5 -37 2 -50 1 -35 -4z m-380
-121 c0 -5 -7 -10 -15 -10 -8 0 -15 5 -15 10 0 6 7 10 15 10 8 0 15 -4 15 -10z"/>
<path d="M4400 1336 c0 -8 5 -18 10 -21 6 -3 10 3 10 14 0 12 -4 21 -10 21 -5
0 -10 -6 -10 -14z"/>
<path d="M3039 1273 c-2 -18 -5 -82 -7 -140 -2 -52 -5 -63 -19 -64 -12 0 -9
-4 9 -10 17 -7 38 -7 60 0 18 5 25 10 16 10 -18 1 -31 30 -24 52 6 15 11 43
22 116 6 43 6 43 -25 43 -17 0 -31 -3 -32 -7z"/>
<path d="M4901 1160 c-1 -71 3 -120 8 -120 17 0 24 22 10 31 -8 5 -9 9 -3 9 7
0 12 24 13 60 1 40 -2 60 -10 60 -9 0 -9 3 0 14 13 16 9 58 -6 63 -7 3 -11
-39 -12 -117z"/>
<path d="M3730 1208 c0 -57 0 -58 29 -58 37 0 50 17 46 60 -2 19 -4 38 -4 41
-1 4 -17 9 -36 11 l-35 4 0 -58z m50 27 c0 -8 -7 -15 -15 -15 -8 0 -15 7 -15
15 0 8 7 15 15 15 8 0 15 -7 15 -15z m3 -50 c1 -5 -6 -11 -15 -13 -11 -2 -18
3 -18 13 0 17 30 18 33 0z"/>
<path d="M4130 1205 c0 -52 1 -55 26 -55 43 0 64 17 64 53 0 42 -15 57 -57 57
l-33 0 0 -55z m58 36 c8 -5 12 -21 10 -37 -2 -21 -9 -30 -25 -32 -20 -3 -23 1
-23 31 0 45 11 56 38 38z"/>
<path d="M3820 1087 c0 -8 7 -14 15 -14 11 0 12 4 4 14 -6 7 -13 13 -15 13 -2
0 -4 -6 -4 -13z"/>
<path d="M215 1070 c-55 -3 187 -7 538 -8 419 -1 637 1 637 8 0 11 -997 11
-1175 0z"/>
<path d="M1480 1072 c0 -9 86 -12 328 -13 331 -1 413 -1 422 1 3 0 176 0 384
0 209 0 378 2 375 5 -3 3 -344 8 -757 12 -568 5 -752 3 -752 -5z"/>
<path d="M3981 1053 c-1 -10 -51 -13 -208 -15 -115 -1 -185 -3 -158 -5 71 -4
235 -35 230 -43 -2 -3 16 -11 40 -18 24 -6 60 -23 81 -37 40 -27 31 -34 -14
-11 -32 16 -291 56 -402 62 -74 3 -89 -2 -90 -33 0 -21 31 -14 37 8 3 11 11
18 19 15 7 -3 40 -8 73 -12 34 -3 61 -11 61 -16 0 -5 13 -7 29 -3 17 3 32 2
36 -4 3 -6 21 -11 38 -11 18 0 75 -6 127 -14 130 -19 268 -29 252 -18 -7 5
-10 16 -7 24 5 12 -7 19 -52 32 -34 9 -45 14 -25 12 17 -1 32 1 32 6 0 4 -9 8
-20 8 -11 0 -30 10 -42 22 -19 19 -20 22 -5 33 21 15 21 22 2 22 -8 0 -12 -4
-9 -9 3 -4 1 -8 -5 -8 -5 0 -12 6 -14 13 -4 10 -6 10 -6 0z m-10 -81 c-13 -2
-27 0 -32 5 -6 6 3 7 23 4 28 -4 29 -6 9 -9z"/>
<path d="M1180 1040 l-95 -6 90 -3 c50 -1 108 -6 130 -10 l40 -9 -34 -1 c-28
-1 -31 -3 -22 -15 19 -23 -6 -31 -104 -32 -134 -2 -135 -2 -105 -19 14 -8 20
-14 15 -15 -15 0 -55 29 -55 41 0 5 12 6 26 3 18 -5 25 -3 20 4 -3 6 0 12 6
15 7 2 -9 5 -35 5 -57 0 -69 8 -43 28 18 12 8 14 -85 12 -104 -2 -104 -2 -21
-5 72 -3 82 -6 72 -18 -7 -8 -29 -16 -49 -16 l-36 -2 35 -6 c19 -4 38 -2 41 3
10 13 31 -4 25 -19 -3 -8 0 -16 7 -19 9 -3 9 -5 0 -5 -6 -1 -14 3 -17 7 -3 5
-27 5 -53 1 -26 -4 -68 -9 -93 -9 l-45 -2 40 -10 c70 -17 72 -18 55 -28 -8 -6
-73 -10 -145 -11 -93 -1 -117 -4 -85 -9 64 -10 380 4 407 18 15 8 95 13 234
15 185 3 213 5 224 20 7 10 26 17 44 17 17 0 31 5 31 10 0 6 29 10 68 9 49 -1
60 -3 42 -9 -24 -8 -24 -8 7 -9 17 -1 34 -5 38 -10 3 -6 39 -10 80 -10 41 0
79 -2 84 -6 5 -3 17 2 26 11 9 9 19 13 23 9 4 -3 -1 -13 -11 -20 -20 -14 -6
-32 15 -19 12 8 263 7 303 0 11 -2 63 -7 115 -10 52 -4 141 -12 197 -18 82 -9
106 -8 118 2 12 10 42 11 128 5 62 -4 124 -7 140 -6 18 1 27 -4 27 -14 0 -8 5
-14 11 -13 6 2 14 -3 16 -9 3 -7 -2 -13 -11 -13 -9 0 -16 -4 -16 -10 0 -5 7
-7 15 -3 13 5 14 2 4 -21 -16 -34 -1 -87 29 -102 17 -8 19 -13 9 -23 -10 -10
-6 -12 18 -9 24 2 31 8 33 30 3 26 1 27 -27 22 -43 -9 -42 22 0 40 22 9 27 15
16 19 -16 6 -30 59 -21 82 9 22 47 19 62 -5 7 -11 19 -20 28 -20 8 0 13 -4 9
-9 -3 -5 -1 -12 5 -16 5 -3 10 0 10 8 0 8 18 19 39 26 22 6 49 23 60 37 19 24
35 28 94 25 17 0 26 -5 22 -12 -4 -6 1 -5 13 2 10 7 27 9 37 5 17 -6 17 -8 -4
-29 -26 -28 -26 -37 -3 -38 9 -1 4 -5 -13 -9 -29 -7 -29 -8 -4 -9 14 0 34 8
44 19 15 17 16 24 6 46 -6 14 -8 30 -5 36 4 6 2 8 -4 4 -13 -8 -175 38 -179
50 -2 5 36 8 83 6 66 -3 84 -1 79 9 -6 9 -56 10 -206 6 -129 -3 -199 -2 -199
5 0 5 15 9 33 8 17 -1 104 -1 192 0 265 4 107 20 -252 26 -276 5 -332 3 -476
-15 -90 -12 -198 -21 -240 -20 -69 1 -77 3 -77 21 0 11 -5 16 -11 13 -6 -4 -8
-14 -5 -22 3 -8 1 -11 -4 -8 -6 3 -10 2 -10 -4 0 -12 -33 -7 -37 6 -2 6 -13 8
-25 6 -11 -3 -24 0 -28 7 -5 8 -13 9 -21 4 -17 -10 -143 -6 -184 6 -36 10
-589 18 -725 10z m275 -30 c3 -5 -1 -10 -10 -10 -9 0 -13 5 -10 10 3 6 8 10
10 10 2 0 7 -4 10 -10z m230 0 c-3 -5 -39 -10 -78 -9 -50 0 -66 3 -52 9 29 12
138 12 130 0z m1145 -5 l-95 -12 90 -2 90 -2 -40 -19 -40 -18 65 -5 c36 -2 -5
-2 -90 1 -85 3 -183 6 -217 6 -33 1 -57 4 -51 7 5 3 -19 10 -54 14 l-63 9 105
8 c58 4 150 12 205 17 148 12 206 10 95 -4z m-716 -4 c3 -5 -1 -11 -9 -15 -15
-6 -29 7 -18 18 9 9 21 8 27 -3z m923 -27 c-9 -9 -28 6 -21 18 4 6 10 6 17 -1
6 -6 8 -13 4 -17z m-1169 9 c-15 -2 -42 -2 -60 0 -18 2 -6 4 27 4 33 0 48 -2
33 -4z m1276 -13 c18 0 40 -50 27 -63 -12 -12 -31 -1 -31 19 0 8 -10 14 -24
14 -13 0 -26 6 -29 14 -6 16 11 27 31 20 8 -2 19 -4 26 -4z m139 -9 c8 -33 -5
-42 -46 -29 -25 8 -37 17 -37 30 0 27 76 26 83 -1z m-1156 3 c-3 -3 -12 -4
-19 -1 -8 3 -5 6 6 6 11 1 17 -2 13 -5z m1071 -91 c21 -5 21 -6 5 -18 -14 -10
-21 -10 -40 2 -27 18 -31 39 -5 28 9 -4 27 -10 40 -12z"/>
<path d="M1055 1030 c3 -5 8 -10 11 -10 2 0 4 5 4 10 0 6 -5 10 -11 10 -5 0
-7 -4 -4 -10z"/>
<path d="M4060 1033 c34 -6 62 -33 57 -55 -6 -21 28 -35 48 -18 9 8 36 8 96 0
46 -5 85 -10 87 -10 1 0 7 10 12 23 l9 22 0 -22 c1 -34 21 -28 21 6 0 22 -5
30 -17 30 -10 0 -79 7 -153 15 -74 9 -146 15 -160 15 l-25 -2 25 -4z"/>
<path d="M558 1023 c7 -3 16 -2 19 1 4 3 -2 6 -13 5 -11 0 -14 -3 -6 -6z"/>
<path d="M4715 1020 c-19 -8 -19 -9 1 -9 27 -1 56 -31 29 -31 -9 0 -15 -6 -12
-12 4 -13 10 -13 82 1 l40 8 -42 2 c-31 1 -43 5 -43 16 0 12 14 15 68 15 50
-1 63 -3 50 -11 -22 -12 -24 -33 -3 -26 8 4 17 2 21 -4 8 -14 36 11 30 28 -4
10 7 13 42 13 26 0 53 4 61 9 19 12 -296 12 -324 1z"/>
<path d="M2175 1010 c-3 -6 1 -7 9 -4 18 7 21 14 7 14 -6 0 -13 -4 -16 -10z"/>
<path d="M1118 1003 c6 -2 18 -2 25 0 6 3 1 5 -13 5 -14 0 -19 -2 -12 -5z"/>
<path d="M4400 993 c0 -35 16 -45 28 -19 11 25 7 36 -15 36 -7 0 -13 -8 -13
-17z"/>
<path d="M175 989 c-12 -19 13 -32 70 -37 48 -4 58 -8 65 -28 10 -26 51 -33
80 -14 11 7 5 8 -19 4 -23 -5 -36 -3 -42 7 -12 19 -11 42 1 34 6 -4 8 -10 5
-15 -9 -14 33 -22 55 -10 11 6 20 7 20 3 0 -5 35 -8 78 -8 42 0 115 -2 161 -4
87 -4 100 1 78 31 -10 13 -41 18 -148 26 -73 5 -143 13 -153 17 -14 6 -17 5
-12 -3 5 -8 -4 -12 -29 -12 -20 0 -34 4 -31 9 3 5 -34 9 -83 10 -57 1 -92 -3
-96 -10z"/>
<path d="M1174 985 c8 -8 23 -15 32 -15 16 0 16 1 -2 15 -26 20 -51 20 -30 0z"/>
<path d="M4668 993 c6 -2 18 -2 25 0 6 3 1 5 -13 5 -14 0 -19 -2 -12 -5z"/>
<path d="M90 970 c-12 -8 -12 -10 3 -16 21 -8 35 2 21 16 -5 5 -15 6 -24 0z"/>
<path d="M5037 974 c-3 -3 -3 -12 0 -20 3 -8 -2 -17 -11 -20 -23 -9 -20 -34 4
-34 11 0 20 5 20 11 0 6 7 9 15 5 8 -3 25 -1 37 4 21 8 22 9 3 11 -11 0 -28 0
-38 -1 -15 -1 -17 3 -13 18 7 20 -5 37 -17 26z"/>
<path d="M5180 971 c-8 -6 -17 -8 -21 -5 -4 2 -20 -1 -34 -8 l-27 -12 27 -8
c31 -8 75 9 75 29 0 15 -1 15 -20 4z"/>
<path d="M4882 909 c-165 -30 -264 -38 -257 -22 2 8 1 12 -4 8 -5 -3 -11 -2
-14 2 -2 5 -2 2 -1 -4 4 -17 -23 -22 -136 -27 -52 -2 -5 -2 105 0 110 2 211 6
225 10 14 4 46 7 72 6 27 0 60 5 75 13 15 8 30 12 33 10 4 -2 7 2 7 10 0 8 -1
14 -1 14 -1 -1 -47 -10 -104 -20z"/>
<path d="M4161 906 c-9 -11 -7 -15 11 -20 27 -7 83 -8 77 -1 -3 2 -19 5 -36 7
-18 1 -29 6 -27 10 3 5 10 6 15 3 5 -4 9 -1 9 4 0 16 -36 13 -49 -3z"/>
<path d="M2315 891 c-6 -11 9 -23 19 -14 9 9 7 23 -3 23 -6 0 -12 -4 -16 -9z"/>
<path d="M3916 882 c-3 -5 -22 -13 -42 -17 l-37 -6 37 -27 c33 -23 37 -30 31
-57 -4 -16 -7 -37 -7 -45 -1 -8 -6 -18 -12 -22 -8 -5 -7 -8 2 -8 7 0 19 -6 26
-12 12 -11 12 -16 0 -29 -13 -15 -13 -19 1 -33 12 -12 13 -16 3 -16 -10 0 -9
-3 2 -10 8 -5 43 -10 77 -10 50 0 61 3 57 14 -3 9 3 17 16 21 l22 7 -22 23
c-12 13 -19 29 -15 35 4 6 1 25 -5 41 -12 28 -11 32 21 65 18 18 27 34 21 34
-7 0 -25 12 -40 27 -20 20 -39 28 -78 31 -28 2 -54 0 -58 -6z"/>
<path d="M4288 873 c12 -2 32 -2 45 0 12 2 2 4 -23 4 -25 0 -35 -2 -22 -4z"/>
<path d="M2955 860 c-3 -5 -2 -10 4 -10 5 0 13 5 16 10 3 6 2 10 -4 10 -5 0
-13 -4 -16 -10z"/>
<path d="M3335 860 c-3 -5 -2 -10 4 -10 5 0 13 5 16 10 3 6 2 10 -4 10 -5 0
-13 -4 -16 -10z"/>
<path d="M4870 861 c0 -5 -9 -11 -20 -14 -11 -3 -20 -13 -20 -22 0 -11 5 -15
15 -11 8 3 15 1 15 -4 0 -14 -34 -12 -48 2 -9 9 -12 9 -12 0 0 -7 -9 -12 -20
-12 -25 0 -27 35 -2 49 9 6 11 11 5 11 -15 0 -53 -35 -53 -49 0 -5 11 -12 25
-15 14 -4 23 -11 20 -17 -4 -5 5 -21 20 -35 28 -26 56 -34 31 -8 -9 8 -16 19
-16 23 0 14 27 32 49 34 11 0 17 5 15 9 -3 4 2 5 10 2 16 -6 20 -21 17 -56 -3
-25 31 -23 54 2 14 15 15 20 4 20 -8 0 -21 4 -29 10 -12 7 -12 12 -1 34 16 29
9 56 -15 56 -12 0 -15 -6 -10 -25 4 -15 2 -25 -4 -25 -6 0 -8 5 -5 10 3 6 1
10 -5 10 -7 0 -10 7 -6 15 3 8 1 15 -4 15 -6 0 -10 -4 -10 -9z"/>
<path d="M1373 813 c9 -2 23 -2 30 0 6 3 -1 5 -18 5 -16 0 -22 -2 -12 -5z"/>
<path d="M3490 810 c0 -5 5 -10 10 -10 6 0 10 5 10 10 0 6 -4 10 -10 10 -5 0
-10 -4 -10 -10z"/>
<path d="M4997 799 c4 -13 8 -18 11 -10 2 7 -1 18 -6 23 -8 8 -9 4 -5 -13z"/>
<path d="M3341 774 c0 -11 3 -14 6 -6 3 7 2 16 -1 19 -3 4 -6 -2 -5 -13z"/>
<path d="M2335 770 c-3 -5 -1 -10 4 -10 6 0 11 5 11 10 0 6 -2 10 -4 10 -3 0
-8 -4 -11 -10z"/>
<path d="M4725 737 c0 -31 4 -42 15 -42 10 0 14 8 12 24 -2 24 -2 24 18 6 18
-16 20 -16 20 -2 0 10 -5 17 -12 17 -6 0 -21 9 -32 19 l-21 20 0 -42z"/>
<path d="M1675 750 c-3 -5 1 -10 9 -10 9 0 16 5 16 10 0 6 -4 10 -9 10 -6 0
-13 -4 -16 -10z"/>
<path d="M3376 744 c-8 -21 -3 -26 18 -18 18 7 17 25 -1 31 -6 2 -13 -4 -17
-13z"/>
<path d="M2352 727 c-42 -45 -20 -110 37 -110 17 0 37 5 43 11 8 8 2 10 -24 6
-29 -5 -38 -2 -52 17 -22 32 -21 62 2 55 13 -4 17 0 17 19 0 14 0 25 -1 25 0
0 -10 -10 -22 -23z"/>
<path d="M4865 741 c-3 -6 -3 -21 0 -32 5 -15 4 -19 -4 -15 -6 4 -11 2 -11 -5
0 -6 8 -9 20 -6 11 3 20 1 20 -4 0 -5 -12 -12 -26 -15 -17 -4 -22 -9 -14 -14
7 -5 9 -13 5 -21 -5 -8 5 0 21 16 16 17 28 33 26 37 -1 4 21 17 48 29 28 12
50 27 50 32 0 5 -10 3 -22 -5 -41 -26 -67 -28 -87 -6 -12 13 -21 16 -26 9z"/>
<path d="M3340 711 c0 -16 41 -24 54 -11 8 10 8 11 -1 6 -7 -4 -22 -2 -33 4
-12 6 -20 7 -20 1z"/>
<path d="M2378 680 c-20 -22 -14 -30 23 -30 26 0 45 22 33 41 -9 15 -38 9 -56
-11z"/>
<path d="M3107 671 c-16 -10 -39 -17 -50 -15 -21 4 -21 4 -2 -6 11 -6 25 -22
32 -35 6 -14 7 -23 2 -19 -5 3 -9 0 -9 -6 0 -6 16 -17 34 -25 19 -8 46 -26 60
-40 21 -21 29 -24 46 -15 11 6 20 18 20 27 0 9 3 13 6 10 11 -11 -17 -66 -37
-72 -10 -4 -29 -4 -41 0 -19 5 -20 4 -6 -5 18 -11 118 -9 118 3 0 4 4 7 8 7 5
0 8 -10 7 -22 -3 -34 14 -52 33 -36 13 11 15 10 9 -6 -6 -16 -5 -17 7 -7 16
14 80 5 71 -9 -3 -4 4 -6 15 -3 14 4 22 -1 29 -18 8 -22 10 -22 16 -6 6 14 14
17 36 12 27 -6 29 -4 28 22 -1 24 -2 25 -7 7 -7 -19 -10 -20 -52 -10 -34 9
-46 17 -51 36 -4 16 -7 18 -8 8 -1 -22 -51 -25 -51 -4 0 8 -14 17 -31 21 -17
4 -33 13 -36 20 -2 8 -12 11 -20 8 -13 -5 -15 -1 -9 23 4 16 7 44 7 62 -1 19
4 32 12 32 6 0 4 5 -6 11 -12 7 -15 17 -11 35 7 26 -8 32 -36 14 -13 -9 -13
-11 0 -21 12 -9 12 -10 -4 -5 -15 5 -17 2 -13 -14 4 -15 1 -20 -11 -18 -12 2
-17 -4 -16 -19 1 -26 -20 -30 -60 -11 -36 16 -42 45 -17 79 25 34 25 35 -12
10z"/>
<path d="M3161 686 c12 -10 59 -15 59 -6 0 5 -14 10 -32 10 -17 0 -29 -2 -27
-4z"/>
<path d="M4705 680 c-3 -5 -1 -10 4 -10 6 0 11 5 11 10 0 6 -2 10 -4 10 -3 0
-8 -4 -11 -10z"/>
<path d="M4820 590 c-9 -6 -10 -10 -3 -10 6 0 15 5 18 10 8 12 4 12 -15 0z"/>
<path d="M3571 581 c22 -14 177 -26 164 -13 -5 5 -48 12 -95 16 -54 4 -79 3
-69 -3z"/>
<path d="M4310 570 l-75 -6 70 -1 c39 -1 79 2 90 7 11 5 13 8 5 7 -8 0 -49 -3
-90 -7z"/>
<path d="M3825 560 c11 -5 103 -8 205 -8 166 1 175 2 85 8 -144 11 -314 11
-290 0z"/>
<path d="M3305 550 c-3 -5 -1 -10 4 -10 6 0 11 5 11 10 0 6 -2 10 -4 10 -3 0
-8 -4 -11 -10z"/>
<path d="M4785 551 c-10 -9 -4 -21 9 -21 8 0 16 -3 19 -7 2 -5 3 -3 1 3 -1 6
2 16 7 21 5 5 1 9 -12 9 -11 0 -22 -2 -24 -5z"/>
<path d="M2710 540 c0 -5 5 -10 10 -10 6 0 10 5 10 10 0 6 -4 10 -10 10 -5 0
-10 -4 -10 -10z"/>
<path d="M3450 520 c0 -5 7 -7 15 -4 8 4 15 8 15 10 0 2 -7 4 -15 4 -8 0 -15
-4 -15 -10z"/>
<path d="M3902 484 c-12 -8 -22 -23 -22 -32 1 -14 2 -14 12 3 6 11 19 25 27
32 23 18 9 16 -17 -3z"/>
<path d="M4675 487 c-10 -8 -15 -19 -11 -25 5 -8 -2 -10 -22 -6 -35 7 -45 -4
-26 -30 11 -16 16 -17 29 -6 28 23 15 -1 -20 -37 -19 -20 -35 -31 -35 -25 0
17 -22 14 -49 -7 l-24 -18 22 -15 c17 -12 18 -17 8 -21 -17 -6 -30 2 -45 28
-11 20 -11 20 -12 -1 -1 -65 117 -46 134 21 8 31 64 90 95 100 11 3 26 15 31
26 14 25 -1 25 -23 -1 -9 -11 -22 -20 -29 -19 -11 0 -11 2 0 6 7 2 17 13 22
24 9 15 7 19 -8 19 -10 0 -26 -6 -37 -13z"/>
<path d="M4766 451 c-3 -5 1 -11 9 -15 9 -3 15 0 15 9 0 16 -16 20 -24 6z"/>
<path d="M4515 414 l-30 -15 30 6 c17 4 34 11 40 16 13 13 -5 10 -40 -7z"/>
<path d="M3925 400 c4 -6 11 -8 16 -5 14 9 11 15 -7 15 -8 0 -12 -5 -9 -10z"/>
<path d="M4295 400 c-3 -5 -1 -10 6 -10 30 0 -4 -13 -53 -20 l-53 -8 51 -1
c28 0 54 2 58 6 4 4 21 7 39 7 28 -1 28 0 5 3 -16 2 -28 11 -28 19 0 16 -16
19 -25 4z"/>
<path d="M4460 399 c0 -5 5 -7 10 -4 6 3 10 8 10 11 0 2 -4 4 -10 4 -5 0 -10
-5 -10 -11z"/>
<path d="M3700 380 c0 -5 7 -10 16 -10 8 0 12 5 9 10 -3 6 -10 10 -16 10 -5 0
-9 -4 -9 -10z"/>
<path d="M4050 377 c0 -18 46 -28 74 -17 23 10 22 10 -14 14 -14 2 -33 6 -42
11 -13 5 -18 3 -18 -8z"/>
<path d="M4408 383 c7 -3 16 -2 19 1 4 3 -2 6 -13 5 -11 0 -14 -3 -6 -6z"/>
<path d="M3890 369 c0 -5 9 -9 20 -9 11 0 20 2 20 4 0 2 -9 6 -20 9 -11 3 -20
1 -20 -4z"/>
<path d="M3778 363 c18 -2 45 -2 60 0 15 2 0 4 -33 4 -33 0 -45 -2 -27 -4z"/>
<path d="M3478 348 c-3 -7 -13 -13 -23 -13 -10 0 -19 -6 -21 -13 -1 -7 0 -8 2
-3 3 6 11 8 18 5 14 -5 43 23 33 32 -2 3 -7 -1 -9 -8z"/>
<path d="M3996 339 c-19 -19 -19 -19 7 -19 15 0 27 5 27 12 0 6 3 8 6 5 4 -4
1 -14 -7 -23 -9 -11 -23 -14 -49 -10 -32 5 -34 4 -16 -9 29 -22 44 -19 78 15
34 34 34 35 -2 43 -17 3 -31 -1 -44 -14z"/>
<path d="M4195 339 c-10 -15 3 -25 16 -12 7 7 7 13 1 17 -6 3 -14 1 -17 -5z"/>
<path d="M4420 324 c-11 -12 -11 -18 2 -30 13 -13 16 -12 32 5 19 21 14 41 -8
41 -8 0 -19 -7 -26 -16z"/>
<path d="M4335 320 c-3 -5 -1 -10 4 -10 6 0 11 5 11 10 0 6 -2 10 -4 10 -3 0
-8 -4 -11 -10z"/>
<path d="M4159 307 c7 -10 21 -17 31 -17 10 0 24 7 31 17 13 15 12 15 -8 4
-18 -9 -28 -9 -45 0 -21 11 -22 11 -9 -4z"/>
<path d="M3530 300 c0 -5 5 -10 10 -10 6 0 10 5 10 10 0 6 -4 10 -10 10 -5 0
-10 -4 -10 -10z"/>
<path d="M3590 300 c0 -5 5 -10 10 -10 6 0 10 5 10 10 0 6 -4 10 -10 10 -5 0
-10 -4 -10 -10z"/>
<path d="M3723 295 c0 -11 4 -12 14 -4 7 6 13 13 13 15 0 2 -6 4 -13 4 -8 0
-14 -7 -14 -15z"/>
<path d="M3980 260 c0 -5 5 -10 10 -10 6 0 10 5 10 10 0 6 -4 10 -10 10 -5 0
-10 -4 -10 -10z"/>
<path d="M4370 249 c0 -5 5 -7 10 -4 6 3 10 8 10 11 0 2 -4 4 -10 4 -5 0 -10
-5 -10 -11z"/>
<path d="M4485 250 c3 -5 8 -10 11 -10 2 0 4 5 4 10 0 6 -5 10 -11 10 -5 0 -7
-4 -4 -10z"/>
<path d="M3785 220 c-3 -5 -1 -10 4 -10 6 0 11 5 11 10 0 6 -2 10 -4 10 -3 0
-8 -4 -11 -10z"/>
<path d="M3949 218 c10 -14 11 -18 1 -18 -12 0 -49 -34 -60 -55 -3 -6 -24 -10
-47 -9 -32 1 -43 -3 -46 -18 -3 -11 -11 -16 -20 -12 -9 3 -16 -3 -20 -18 -8
-29 7 -45 27 -29 12 10 15 9 18 -6 3 -15 7 -12 21 12 9 17 16 24 17 18 0 -10
6 -10 25 -1 14 6 25 15 25 20 0 5 7 16 15 25 8 8 13 19 10 24 -4 5 4 9 17 9
19 0 20 -2 8 -11 -13 -9 -12 -10 2 -5 10 3 20 1 23 -4 8 -12 42 -13 49 -1 3 4
-5 6 -18 4 -13 -3 -27 1 -31 7 -5 9 -2 10 13 6 11 -4 23 -3 26 3 8 12 -22 23
-37 14 -7 -4 -6 1 2 10 8 10 12 19 10 20 -2 1 -13 9 -24 17 -19 14 -19 14 -6
-2z"/>
<path d="M3887 213 c-10 -9 -9 -23 1 -23 5 0 9 7 9 15 0 17 -1 18 -10 8z"/>
<path d="M4016 204 c-9 -22 -8 -24 9 -24 8 0 15 6 15 14 0 22 -17 28 -24 10z"/>
<path d="M3801 181 c-7 -5 -12 -14 -10 -20 3 -7 11 -3 21 9 18 21 13 26 -11
11z"/>
<path d="M3605 150 c-3 -5 -1 -10 4 -10 6 0 11 5 11 10 0 6 -2 10 -4 10 -3 0
-8 -4 -11 -10z"/>
<path d="M3690 111 c0 -6 4 -13 10 -16 6 -3 7 1 4 9 -7 18 -14 21 -14 7z"/>
<path d="M4027 113 c-4 -3 -7 -11 -7 -17 0 -6 5 -5 12 2 6 6 9 14 7 17 -3 3
-9 2 -12 -2z"/>
<path d="M4190 110 c0 -5 5 -10 10 -10 6 0 10 5 10 10 0 6 -4 10 -10 10 -5 0
-10 -4 -10 -10z"/>
<path d="M3913 93 c-18 -7 -16 -23 2 -23 8 0 15 7 15 15 0 8 -1 15 -2 14 -2 0
-9 -3 -15 -6z"/>
<path d="M4175 90 c-8 -13 9 -20 24 -11 10 6 9 10 -3 14 -8 3 -18 2 -21 -3z"/>
<path d="M3435 40 c-3 -5 1 -10 9 -10 9 0 16 5 16 10 0 6 -4 10 -9 10 -6 0
-13 -4 -16 -10z"/>
</g>
</svg>
